<svg width="800" height="500" xmlns="http://www.w3.org/2000/svg">
  <!-- خلفية -->
  <rect width="800" height="500" fill="#f0f0f0"/>
  
  <!-- هيكل السيارة الأساسي -->
  <path d="M150,300 C150,280 160,250 230,250 L570,250 C640,250 650,280 650,300 L650,350 C650,370 640,380 620,380 L180,380 C160,380 150,370 150,350 Z" fill="#cccccc" stroke="#666666" stroke-width="2"/>
  
  <!-- سقف السيارة -->
  <path d="M250,250 L300,200 L500,200 L550,250" fill="#cccccc" stroke="#666666" stroke-width="2"/>
  
  <!-- نوافذ السيارة -->
  <path d="M300,200 L330,250 L470,250 L500,200" fill="#defaff" stroke="#666666" stroke-width="1"/>
  
  <!-- العجلات -->
  <circle cx="240" cy="380" r="50" fill="#333333" stroke="#000000" stroke-width="2"/>
  <circle cx="240" cy="380" r="25" fill="#666666" stroke="#333333" stroke-width="2"/>
  
  <circle cx="560" cy="380" r="50" fill="#333333" stroke="#000000" stroke-width="2"/>
  <circle cx="560" cy="380" r="25" fill="#666666" stroke="#333333" stroke-width="2"/>
  
  <!-- المصابيح الأمامية -->
  <rect x="170" y="280" width="30" height="20" rx="5" fill="#ffff99" stroke="#666666" stroke-width="1"/>
  <rect x="600" y="280" width="30" height="20" rx="5" fill="#ffff99" stroke="#666666" stroke-width="1"/>
  
  <!-- الشبك الأمامي -->
  <rect x="240" y="300" width="320" height="20" rx="5" fill="#ffffff" stroke="#666666" stroke-width="1"/>
  <line x1="250" y1="310" x2="550" y2="310" stroke="#666666" stroke-width="1"/>
  <line x1="260" y1="300" x2="260" y2="320" stroke="#666666" stroke-width="1"/>
  <line x1="280" y1="300" x2="280" y2="320" stroke="#666666" stroke-width="1"/>
  <line x1="300" y1="300" x2="300" y2="320" stroke="#666666" stroke-width="1"/>
  <line x1="320" y1="300" x2="320" y2="320" stroke="#666666" stroke-width="1"/>
  <line x1="340" y1="300" x2="340" y2="320" stroke="#666666" stroke-width="1"/>
  <line x1="360" y1="300" x2="360" y2="320" stroke="#666666" stroke-width="1"/>
  <line x1="380" y1="300" x2="380" y2="320" stroke="#666666" stroke-width="1"/>
  <line x1="400" y1="300" x2="400" y2="320" stroke="#666666" stroke-width="1"/>
  <line x1="420" y1="300" x2="420" y2="320" stroke="#666666" stroke-width="1"/>
  <line x1="440" y1="300" x2="440" y2="320" stroke="#666666" stroke-width="1"/>
  <line x1="460" y1="300" x2="460" y2="320" stroke="#666666" stroke-width="1"/>
  <line x1="480" y1="300" x2="480" y2="320" stroke="#666666" stroke-width="1"/>
  <line x1="500" y1="300" x2="500" y2="320" stroke="#666666" stroke-width="1"/>
  <line x1="520" y1="300" x2="520" y2="320" stroke="#666666" stroke-width="1"/>
  <line x1="540" y1="300" x2="540" y2="320" stroke="#666666" stroke-width="1"/>
  
  <!-- نص -->
  <text x="400" y="150" font-family="Arial" font-size="24" text-anchor="middle" fill="#333333">صورة توضيحية للسيارة</text>
  <text x="400" y="450" font-family="Arial" font-size="16" text-anchor="middle" fill="#666666">يرجى اختيار اللون من القائمة أدناه</text>
</svg>